PathFileType	4	(X/Y/Z)	..\data\2014048\dynamic\2014048_C4_01.trc
DataRate	CameraRate	NumFrames	NumMarkers	Units	OrigDataRate	OrigDataStartFrame	OrigNumFrames
100.000000	100.000000	4	52	mm	100.000000	69	186
Frame#	Time	L_IAS			L_IPS			R_IPS			R_IAS			L_FTC			L_FLE			L_FME			L_FAX			L_TTC			L_FAL			L_TAM			L_FCC			L_FM1			L_FM2			L_FM5			R_FTC			R_FLE			R_FME			R_FAX			R_TTC			R_FAL			R_TAM			R_FCC			R_FM1			R_FM2			R_FM5			CV7			TV10			SXS			SJN			L_SIA			L_SRS			L_SAA			L_SAE			L_HLE			L_HME			L_UOA			L_RSP			L_UHE			L_HM2			L_HM5			R_SIA			R_SRS			R_SAA			R_SAE			R_HLE			R_HME			R_UOA			R_RSP			R_UHE			R_HM2			R_HM5			
		X1	Y1	Z1	X2	Y2	Z2	X3	Y3	Z3	X4	Y4	Z4	X5	Y5	Z5	X6	Y6	Z6	X7	Y7	Z7	X8	Y8	Z8	X9	Y9	Z9	X10	Y10	Z10	X11	Y11	Z11	X12	Y12	Z12	X13	Y13	Z13	X14	Y14	Z14	X15	Y15	Z15	X16	Y16	Z16	X17	Y17	Z17	X18	Y18	Z18	X19	Y19	Z19	X20	Y20	Z20	X21	Y21	Z21	X22	Y22	Z22	X23	Y23	Z23	X24	Y24	Z24	X25	Y25	Z25	X26	Y26	Z26	X27	Y27	Z27	X28	Y28	Z28	X29	Y29	Z29	X30	Y30	Z30	X31	Y31	Z31	X32	Y32	Z32	X33	Y33	Z33	X34	Y34	Z34	X35	Y35	Z35	X36	Y36	Z36	X37	Y37	Z37	X38	Y38	Z38	X39	Y39	Z39	X40	Y40	Z40	X41	Y41	Z41	X42	Y42	Z42	X43	Y43	Z43	X44	Y44	Z44	X45	Y45	Z45	X46	Y46	Z46	X47	Y47	Z47	X48	Y48	Z48	X49	Y49	Z49	X50	Y50	Z50	X51	Y51	Z51	X52	Y52	Z52	

70	0.6900000000000001	682.3999023437501	881.206726074219	-340.1304321289063	470.8123779296876	920.5818481445315	-291.6331176757813	462.618865966797	920.3804931640627	-186.0433197021485	662.6472778320314	867.9934692382815	-96.50877380371097	612.0087890625001	862.0693969726565	-411.3609619140626	707.3799438476564	442.9886474609376	-366.4682312011719	711.2355346679689	439.8245849609376	-236.2647399902344	710.8360595703126	380.9007873535157	-370.8736267089844	762.0691528320314	387.567352294922	-311.2402038574219	768.9517822265627	62.49772262573244	-341.7615966796876	794.0398559570315	86.89477539062501	-257.9651794433594	733.8699340820314	14.29265880584717	-285.4385681152344	922.0566406250002	42.43372344970704	-276.1712646484376	922.082214355469	44.21729278564454	-324.7866516113282	870.3757324218752	17.03709983825684	-367.8934326171876	568.0445556640626	842.2561035156252	-34.11278533935548	506.6170959472657	425.5339660644532	-84.85765838623048	530.0093994140626	417.9654541015626	-213.6880340576172	472.241180419922	377.7322387695313	-82.5663528442383	527.6854248046876	350.6909484863282	-132.7889251708985	305.7060852050782	92.7460403442383	-109.1551513671875	336.2155456542969	101.5422668457032	-192.2330932617188	252.9595336914063	71.09008026123048	-161.8075408935547	425.532440185547	19.22492980957032	-172.0218658447266	425.7777709960939	30.8860263824463	-119.0518035888672	374.9755249023438	22.92219924926758	-80.72793579101564	520.0945434570314	1380.920288085938	-221.3314056396485	466.7633361816407	1100.915893554688	-223.2339477539063	680.4523925781251	1067.075073242188	-230.4357604980469	633.2692260742189	1296.597290039063	-233.6260375976563	435.7684631347657	1161.03662109375	-281.1091918945313	467.2335205078126	1301.426391601563	-295.0750122070313	498.7609252929689	1303.238037109375	-376.0906066894532	543.8842773437501	1306.683227539063	-392.8415527343751	459.5376586914064	1002.621276855469	-432.1689758300782	471.4541015625001	992.2994384765627	-350.3898010253907	445.814666748047	981.816589355469	-388.9891662597657	523.4221801757814	760.4323120117189	-438.5066833496095	452.7667236328126	775.0325927734377	-470.2823181152345	521.6700439453126	668.5337524414064	-444.1371459960939	433.4153747558595	697.7252807617189	-471.623748779297	458.436248779297	1159.895629882813	-120.8441009521485	482.9248962402345	1303.893920898438	-129.2127380371094	542.5064086914064	1308.19287109375	-59.91817474365236	593.6752929687501	1305.403930664063	-51.58161544799806	624.5050048828126	992.4866943359377	20.12782287597657	596.9702758789064	975.1668701171877	-54.65481185913087	602.1950683593751	964.6656494140627	-5.811977863311768	811.7235107421877	837.5098876953127	-32.08661651611329	759.8081054687501	802.7669067382815	18.54883003234864	873.0545654296877	774.3613891601565	-33.54056930541993	798.1561279296877	737.0473022460939	18.62428855895996	
71	0.7000000000000001	692.2257080078126	882.871032714844	-342.7045593261719	480.5795898437501	921.485778808594	-293.4883422851563	472.7489318847657	920.6571044921877	-187.8451080322266	672.7821655273439	868.5183105468752	-99.31165313720706	621.7062377929689	863.9810180664065	-413.6715087890626	716.4320678710939	443.9326782226564	-368.1212768554688	718.2451782226564	440.8809814453126	-238.0664978027344	719.2257690429689	381.5266418457032	-372.4063720703126	769.374450683594	387.6640625000001	-312.1166381835938	770.4649658203127	61.97834396362306	-342.0123291015626	795.299011230469	86.0836868286133	-258.0622863769532	733.8404541015626	14.66098117828369	-285.8805541992188	922.9005126953127	38.94575119018555	-275.6117858886719	923.5825805664065	40.68611526489259	-324.6256713867188	870.7036743164065	14.97882843017578	-368.1181030273438	578.6828002929689	842.1853637695315	-36.49432754516602	520.3513793945314	425.3970642089845	-84.46791839599611	544.3986816406251	416.5316467285157	-213.0408935546876	485.1218872070314	378.2935180664063	-81.86470031738283	540.6197509765626	349.7052917480469	-131.2486572265625	310.3061523437501	98.475456237793	-108.5137176513672	341.9664306640626	105.9411315917969	-190.9380798339844	257.7891540527344	79.66999816894533	-161.5823516845703	425.250213623047	18.91459274291993	-171.8768920898438	425.7576599121095	30.40075492858887	-118.9936752319336	375.5817565917969	24.06689453125001	-80.85284423828126	529.3336791992189	1381.623657226563	-223.1536712646485	476.387420654297	1101.48095703125	-225.178207397461	690.9359130859376	1068.081176757813	-232.8410186767579	642.6757812500001	1297.487060546875	-235.5458526611329	445.4389953613282	1161.720825195313	-283.1427612304688	476.6531066894532	1302.212524414063	-297.0576782226563	508.2896118164064	1304.152954101563	-378.0139160156251	553.4509887695314	1307.648193359375	-394.6946105957032	470.7701110839845	1003.184143066406	-434.4466552734376	482.5041503906251	992.9293212890627	-352.4893798828126	456.5882873535157	982.3216552734377	-391.1765747070314	536.0975952148439	761.4076538085939	-440.3260498046876	465.4447326660157	775.426940917969	-472.4546508789064	535.0486450195314	669.5065307617189	-445.9743041992189	446.6565246582032	697.9365844726564	-473.8801269531251	467.9205017089845	1160.404296875	-122.8953475952149	492.2562866210939	1304.51318359375	-130.9955444335938	551.9425659179689	1308.647827148438	-61.83654403686525	603.0867309570314	1305.83740234375	-53.54112243652345	631.2482299804689	992.6387939453127	17.18966865539551	604.1236572265626	975.731384277344	-57.91701889038087	608.8287963867189	964.9735107421877	-8.946228981018068	816.9309692382815	835.1372680664065	-34.59259796142579	764.1635131835939	800.9116821289065	15.93388557434082	877.0229492187502	770.9954833984377	-36.20499420166016	801.3879394531252	734.7703857421876	15.86195945739746	
72	0.71	701.9548339843751	884.7508544921877	-345.2864685058594	490.3114318847657	922.5727539062502	-295.2993774414063	482.8277893066407	921.0400390625002	-189.5592193603516	682.8422851562501	869.170837402344	-102.2797317504883	631.3099365234376	866.1589355468752	-415.9717407226564	725.2885742187501	444.9925231933595	-369.9145202636719	724.9213256835939	441.9936828613282	-239.973373413086	727.4193115234376	382.3083496093751	-374.0809936523438	776.437194824219	387.8667297363282	-313.1383666992188	771.875427246094	61.6846160888672	-342.4291992187501	796.2984619140627	85.57051086425783	-258.3191223144532	733.7992553710939	15.10460758209229	-286.4888610839844	923.5172119140627	36.05444717407227	-275.0703430175782	924.9379882812502	37.82011795043946	-324.4833679199219	871.0493164062502	13.46822166442871	-368.4350891113282	589.4360961914064	842.176940917969	-38.89067459106446	535.2333374023439	425.1890869140626	-83.90798950195314	560.1712036132814	415.0554199218751	-212.2005767822266	499.2579650878907	378.9043579101563	-80.98312377929689	554.7558593750001	348.7993469238282	-129.5213470458985	316.0162658691407	104.7866516113282	-107.8597869873047	348.8246459960938	110.8003692626953	-189.6241760253907	263.8883361816407	89.14388275146486	-161.3946533203125	425.0912475585939	18.75980567932129	-171.7624664306641	425.9278869628907	30.03537559509278	-119.0096740722657	376.5577392578126	25.7130241394043	-81.02458953857423	538.5408325195314	1382.475708007813	-225.0178985595704	485.9761657714845	1102.203735351563	-227.1817016601563	701.3794555664064	1069.444580078125	-235.2434844970704	652.0554199218751	1298.554077148438	-237.4350128173829	455.1117553710939	1162.606567382813	-285.2708740234376	486.0858154296876	1303.181274414063	-299.1101684570313	517.8911132812501	1305.292236328125	-379.9749145507813	563.0941162109376	1308.85546875	-396.5561828613282	482.232147216797	1003.993774414063	-436.8853454589845	493.6034545898439	993.8492431640627	-354.7179260253907	467.516815185547	983.0579223632815	-393.5328369140626	549.0354614257814	762.6779785156251	-442.2458801269532	478.4414062500001	776.1225585937502	-474.8495483398439	548.6588745117189	670.7426147460939	-447.8872680664064	460.2035217285157	698.4485473632814	-476.3939819335939	477.3497924804689	1161.084716796875	-124.9640579223633	501.5105895996095	1305.272827148438	-132.8354644775391	561.2675781250001	1309.330688476563	-63.80636215209962	612.3668212890626	1306.521850585938	-55.5140953063965	637.6579589843751	993.0415039062502	14.14990997314453	611.1369628906251	976.6152343750002	-61.37282943725587	615.1967163085939	965.534606933594	-12.24710369110108	821.6704711914065	832.8150634765627	-36.91058731079102	767.9613647460939	799.1998291015627	13.44562530517578	880.4358520507815	767.5443725585939	-38.64245223999024	803.8773193359377	732.5787353515626	13.25793170928955	
73	0.72	711.5640869140626	886.7456054687502	-347.8471984863282	499.9721069335939	923.786071777344	-297.0633239746094	492.8139038085939	921.487487792969	-191.1919403076172	692.7697753906251	869.8901367187502	-105.3647842407227	640.7960205078126	868.4962158203127	-418.2440185546876	733.8308715820314	446.0735168457032	-371.8065490722657	731.3546142578126	443.1107177734376	-241.951644897461	735.2836303710939	383.1485900878907	-375.8536071777344	783.2166137695315	388.1109008789064	-314.3124694824219	773.1855468750002	61.56765365600587	-342.9451599121094	797.1112060546877	85.31749725341798	-258.6821594238282	733.8011474609376	15.57601356506348	-287.1775512695313	923.9666137695315	33.77228164672852	-274.5688476562501	926.1641845703127	35.62295532226563	-324.3741760253907	871.4327392578127	12.46789836883545	-368.8142700195313	600.2246704101564	842.1909790039065	-41.28398895263673	551.2081298828126	424.9080200195314	-83.20410156250001	577.3104248046876	413.5691833496095	-211.1966094970704	514.6247558593751	379.5549011230469	-79.9513397216797	570.0570678710939	347.9902648925782	-127.676254272461	322.9295349121094	111.6210708618164	-107.2152557373047	356.8479309082032	116.0881423950196	-188.3434600830078	271.3358459472657	99.38079833984378	-161.2511596679688	425.250946044922	18.87260055541993	-171.664535522461	426.471405029297	29.89922142028809	-119.088981628418	378.0756225585938	27.94856834411622	-81.23146820068361	547.7081298828126	1383.420288085938	-226.9070892333985	495.5149230957032	1103.035034179688	-229.240951538086	711.7048950195314	1071.086181640625	-237.6095886230469	661.3977661132814	1299.740356445313	-239.280502319336	464.7642822265626	1163.637329101563	-287.4894714355469	495.5229492187501	1304.2724609375	-301.2173767089844	527.5502319335939	1306.599609375	-381.9622802734376	572.7960205078126	1310.250366210938	-398.4160461425782	493.8802185058595	1004.996459960938	-439.4799804687501	504.7090148925782	994.9975585937502	-357.0849609375001	478.5963439941407	983.958923339844	-396.0655212402345	562.2310791015626	764.1964721679689	-444.2838134765626	491.7494506835939	777.0711059570315	-477.469207763672	562.4988403320314	672.1970825195314	-449.8843383789064	474.0501708984376	699.2129516601564	-479.1566162109376	486.7112426757814	1161.879516601563	-127.047348022461	510.6735839843751	1306.11669921875	-134.7272644042969	570.4691162109376	1310.177978515625	-65.81326293945314	621.5020141601564	1307.39306640625	-57.48250961303712	643.7393188476564	993.6250000000002	11.0380277633667	618.0049438476564	977.7439575195315	-64.9754104614258	621.3138427734376	966.2810058593752	-15.68673324584961	825.9673461914065	830.5425415039065	-39.01142883300782	771.2408447265627	797.6099243164065	11.09186458587647	883.341735839844	764.0341796875001	-40.82526397705079	805.6887207031252	730.4645385742189	10.81834983825684	
